<svg xmlns="http://www.w3.org/2000/svg" version="1.1" xmlns:xlink="http://www.w3.org/1999/xlink" xmlns:svgjs="http://svgjs.dev/svgjs" width="1440" height="560" preserveAspectRatio="none" viewBox="0 0 1440 560"><g mask="url(&quot;#SvgjsMask1001&quot;)" fill="none"><rect width="1440" height="560" x="0" y="0" fill="rgba(255, 255, 255, 1)"></rect><path d="M124.91 474.39L169.85 474.39L169.85 530.18L124.91 530.18z" fill="#d3b714"></path><path d="M54.16 544.91L77.57 544.91L77.57 593.5L54.16 593.5z" fill="#d3b714"></path><path d="M372.65-13.83a54.45 54.45 0 1 0 17.08 107.55z" fill="#e73635"></path><path d="M681.52 409.41 a45.93 45.93 0 1 0 91.86 0 a45.93 45.93 0 1 0 -91.86 0z" stroke="#d3b714"></path><path d="M1083.24 162.89L1117.31 162.89L1117.31 196.96L1083.24 196.96z" stroke="#037b0b"></path><path d="M950.82 328.68L969.25 328.68L969.25 347.11L950.82 347.11z" fill="#037b0b"></path><path d="M1048.19 495.8a13.42 13.42 0 1 0-13.46 23.22z" fill="#e73635"></path><path d="M-12.13 242.37 a33.51 33.51 0 1 0 67.02 0 a33.51 33.51 0 1 0 -67.02 0z" stroke="#d3b714"></path><path d="M717.65 450.26L732.36 450.26L732.36 474.45L717.65 474.45z" fill="#037b0b"></path><path d="M618.15 252.71 a48.69 48.69 0 1 0 97.38 0 a48.69 48.69 0 1 0 -97.38 0z" fill="#e73635"></path><path d="M1227.03 476.46L1262.85 476.46L1262.85 506.68L1227.03 506.68z" stroke="#d3b714"></path><path d="M515.94 355.5 a29.86 29.86 0 1 0 59.72 0 a29.86 29.86 0 1 0 -59.72 0z" stroke="#d3b714"></path><path d="M1161.8 372.97L1164.52 372.97L1164.52 375.69L1161.8 375.69z" fill="#d3b714"></path><path d="M745.12 233.35L758.82 233.35L758.82 247.05L745.12 247.05z" fill="#e73635"></path><path d="M433.92 274.4a22.41 22.41 0 1 0 43.72-9.87z" fill="#d3b714"></path><path d="M53.26 124.92 a48.23 48.23 0 1 0 96.46 0 a48.23 48.23 0 1 0 -96.46 0z" stroke="#d3b714"></path><path d="M318.25 448.67L320.66 448.67L320.66 451.08L318.25 451.08z" fill="#037b0b"></path><path d="M784.8 322.69a20.76 20.76 0 1 0-1.76-41.48z" stroke="#037b0b"></path><path d="M1290.19 235.12L1304.68 235.12L1304.68 286.16L1290.19 286.16z" fill="#037b0b"></path><path d="M366.14 51.53L405.6 51.53L405.6 90.99L366.14 90.99z" stroke="#d3b714"></path><path d="M34.95 471.95a28.16 28.16 0 1 0 34.19 44.76z" fill="#e73635"></path><path d="M1396.81 425.53a40.06 40.06 0 1 0 64.55 47.46z" fill="#037b0b"></path><path d="M772.84 15.89L815.44 15.89L815.44 69.94L772.84 69.94z" stroke="#037b0b"></path><path d="M196.84 275.52 a11.35 11.35 0 1 0 22.7 0 a11.35 11.35 0 1 0 -22.7 0z" fill="#e73635"></path><path d="M241.01 492.11a30.78 30.78 0 1 0-43.06 43.99z" fill="#d3b714"></path><path d="M97.2 531.52 a11.29 11.29 0 1 0 22.58 0 a11.29 11.29 0 1 0 -22.58 0z" fill="#037b0b"></path><path d="M142.56 16.12L171.69 16.12L171.69 45.25L142.56 45.25z" fill="#d3b714"></path><path d="M392.32 447.05 a4.23 4.23 0 1 0 8.46 0 a4.23 4.23 0 1 0 -8.46 0z" fill="#e73635"></path><path d="M207.78 51.36L228.84 51.36L228.84 72.42L207.78 72.42z" stroke="#e73635"></path><path d="M1492.34 70.56a53.82 53.82 0 1 0-107.42 6.85z" fill="#d3b714"></path><path d="M802.76 155.59L828.76 155.59L828.76 180.23L802.76 180.23z" stroke="#e73635"></path><path d="M175.88 326.49a39.66 39.66 0 1 0 63.79-47.14z" stroke="#e73635"></path><path d="M822.31 220.15 a35.4 35.4 0 1 0 70.8 0 a35.4 35.4 0 1 0 -70.8 0z" stroke="#e73635"></path></g><defs><mask id="SvgjsMask1001"><rect width="1440" height="560" fill="#ffffff"></rect></mask></defs></svg>